<mxfile host="app.diagrams.net" modified="2023-05-18T13:22:23.168Z" agent="Mozilla/5.0 (Windows NT 10.0; Win64; x64) AppleWebKit/537.36 (KHTML, like Gecko) Chrome/113.0.0.0 Safari/537.36 Edg/113.0.1774.35" etag="yRRaJApH6BPJjtkZvaaz" version="21.3.2" type="device">
  <diagram name="Page-1" id="Oe9-CR3_ywObPFEiXQcB">
    <mxGraphModel dx="1050" dy="740" grid="1" gridSize="10" guides="1" tooltips="1" connect="1" arrows="1" fold="1" page="1" pageScale="1" pageWidth="850" pageHeight="1100" math="0" shadow="0">
      <root>
        <mxCell id="0" />
        <mxCell id="1" parent="0" />
        <mxCell id="4-uCvtQVfR6zRa9MHCVx-2" style="edgeStyle=orthogonalEdgeStyle;rounded=0;orthogonalLoop=1;jettySize=auto;html=1;exitX=0.5;exitY=1;exitDx=0;exitDy=0;" edge="1" parent="1" source="4-uCvtQVfR6zRa9MHCVx-1" target="4-uCvtQVfR6zRa9MHCVx-3">
          <mxGeometry relative="1" as="geometry">
            <mxPoint x="390" y="140" as="targetPoint" />
          </mxGeometry>
        </mxCell>
        <mxCell id="4-uCvtQVfR6zRa9MHCVx-1" value="&lt;font style=&quot;font-size: 24px;&quot;&gt;Start&lt;/font&gt;" style="ellipse;whiteSpace=wrap;html=1;" vertex="1" parent="1">
          <mxGeometry x="330" y="10" width="120" height="80" as="geometry" />
        </mxCell>
        <mxCell id="4-uCvtQVfR6zRa9MHCVx-5" style="edgeStyle=orthogonalEdgeStyle;rounded=0;orthogonalLoop=1;jettySize=auto;html=1;exitX=0.5;exitY=1;exitDx=0;exitDy=0;" edge="1" parent="1" source="4-uCvtQVfR6zRa9MHCVx-3">
          <mxGeometry relative="1" as="geometry">
            <mxPoint x="390" y="230" as="targetPoint" />
          </mxGeometry>
        </mxCell>
        <mxCell id="4-uCvtQVfR6zRa9MHCVx-3" value="Prompt user for&amp;nbsp;&lt;br&gt;number of rounds" style="shape=parallelogram;perimeter=parallelogramPerimeter;whiteSpace=wrap;html=1;fixedSize=1;" vertex="1" parent="1">
          <mxGeometry x="330" y="110" width="120" height="60" as="geometry" />
        </mxCell>
        <mxCell id="4-uCvtQVfR6zRa9MHCVx-6" style="edgeStyle=orthogonalEdgeStyle;rounded=0;orthogonalLoop=1;jettySize=auto;html=1;exitX=0;exitY=0.5;exitDx=0;exitDy=0;" edge="1" parent="1" source="4-uCvtQVfR6zRa9MHCVx-4">
          <mxGeometry relative="1" as="geometry">
            <mxPoint x="270" y="370" as="targetPoint" />
          </mxGeometry>
        </mxCell>
        <mxCell id="4-uCvtQVfR6zRa9MHCVx-7" style="edgeStyle=orthogonalEdgeStyle;rounded=0;orthogonalLoop=1;jettySize=auto;html=1;exitX=1;exitY=0.5;exitDx=0;exitDy=0;" edge="1" parent="1" source="4-uCvtQVfR6zRa9MHCVx-4">
          <mxGeometry relative="1" as="geometry">
            <mxPoint x="500" y="370" as="targetPoint" />
          </mxGeometry>
        </mxCell>
        <mxCell id="4-uCvtQVfR6zRa9MHCVx-4" value="Is input&lt;br&gt;in range 10-1&lt;br&gt;" style="rhombus;whiteSpace=wrap;html=1;rotation=0;" vertex="1" parent="1">
          <mxGeometry x="335" y="210" width="110" height="130" as="geometry" />
        </mxCell>
        <mxCell id="4-uCvtQVfR6zRa9MHCVx-8" value="True" style="text;strokeColor=none;align=center;fillColor=none;html=1;verticalAlign=middle;whiteSpace=wrap;rounded=0;" vertex="1" parent="1">
          <mxGeometry x="275" y="240" width="60" height="30" as="geometry" />
        </mxCell>
        <mxCell id="4-uCvtQVfR6zRa9MHCVx-9" value="False" style="text;strokeColor=none;align=center;fillColor=none;html=1;verticalAlign=middle;whiteSpace=wrap;rounded=0;" vertex="1" parent="1">
          <mxGeometry x="440" y="240" width="60" height="30" as="geometry" />
        </mxCell>
        <mxCell id="4-uCvtQVfR6zRa9MHCVx-12" style="edgeStyle=orthogonalEdgeStyle;rounded=0;orthogonalLoop=1;jettySize=auto;html=1;exitX=0.5;exitY=1;exitDx=0;exitDy=0;" edge="1" parent="1" source="4-uCvtQVfR6zRa9MHCVx-10">
          <mxGeometry relative="1" as="geometry">
            <mxPoint x="273" y="510" as="targetPoint" />
          </mxGeometry>
        </mxCell>
        <mxCell id="4-uCvtQVfR6zRa9MHCVx-10" value="Rock Paper Scissors Method:&lt;br&gt;1. Prompt user for input&lt;br&gt;2. Gets Random input&lt;br&gt;3. Decides Winner&amp;nbsp;&lt;br&gt;4. Display result each round" style="rounded=0;whiteSpace=wrap;html=1;" vertex="1" parent="1">
          <mxGeometry x="190" y="370" width="165" height="70" as="geometry" />
        </mxCell>
        <mxCell id="4-uCvtQVfR6zRa9MHCVx-16" style="edgeStyle=orthogonalEdgeStyle;rounded=0;orthogonalLoop=1;jettySize=auto;html=1;exitX=0.5;exitY=1;exitDx=0;exitDy=0;" edge="1" parent="1" source="4-uCvtQVfR6zRa9MHCVx-14" target="4-uCvtQVfR6zRa9MHCVx-17">
          <mxGeometry relative="1" as="geometry">
            <mxPoint x="273" y="610" as="targetPoint" />
          </mxGeometry>
        </mxCell>
        <mxCell id="4-uCvtQVfR6zRa9MHCVx-14" value="Display number of ties, wins&lt;br&gt;computer wins and overall&lt;br&gt;Winner" style="shape=parallelogram;perimeter=parallelogramPerimeter;whiteSpace=wrap;html=1;fixedSize=1;" vertex="1" parent="1">
          <mxGeometry x="183.75" y="500" width="177.5" height="70" as="geometry" />
        </mxCell>
        <mxCell id="4-uCvtQVfR6zRa9MHCVx-18" style="edgeStyle=orthogonalEdgeStyle;rounded=0;orthogonalLoop=1;jettySize=auto;html=1;exitX=0.5;exitY=1;exitDx=0;exitDy=0;" edge="1" parent="1" source="4-uCvtQVfR6zRa9MHCVx-17" target="4-uCvtQVfR6zRa9MHCVx-19">
          <mxGeometry relative="1" as="geometry">
            <mxPoint x="275" y="740" as="targetPoint" />
          </mxGeometry>
        </mxCell>
        <mxCell id="4-uCvtQVfR6zRa9MHCVx-17" value="Prompt user if they&lt;br&gt;Want to play&amp;nbsp;&lt;br&gt;again" style="shape=parallelogram;perimeter=parallelogramPerimeter;whiteSpace=wrap;html=1;fixedSize=1;" vertex="1" parent="1">
          <mxGeometry x="210" y="620" width="130" height="70" as="geometry" />
        </mxCell>
        <mxCell id="4-uCvtQVfR6zRa9MHCVx-20" style="edgeStyle=orthogonalEdgeStyle;rounded=0;orthogonalLoop=1;jettySize=auto;html=1;exitX=0;exitY=0.5;exitDx=0;exitDy=0;" edge="1" parent="1" source="4-uCvtQVfR6zRa9MHCVx-19">
          <mxGeometry relative="1" as="geometry">
            <mxPoint x="150" y="130" as="targetPoint" />
          </mxGeometry>
        </mxCell>
        <mxCell id="4-uCvtQVfR6zRa9MHCVx-21" style="edgeStyle=orthogonalEdgeStyle;rounded=0;orthogonalLoop=1;jettySize=auto;html=1;exitX=1;exitY=0.5;exitDx=0;exitDy=0;" edge="1" parent="1" source="4-uCvtQVfR6zRa9MHCVx-19">
          <mxGeometry relative="1" as="geometry">
            <mxPoint x="360" y="860" as="targetPoint" />
          </mxGeometry>
        </mxCell>
        <mxCell id="4-uCvtQVfR6zRa9MHCVx-19" value="Is input&amp;nbsp;&lt;br&gt;yes/no?" style="rhombus;whiteSpace=wrap;html=1;" vertex="1" parent="1">
          <mxGeometry x="235" y="730" width="80" height="80" as="geometry" />
        </mxCell>
        <mxCell id="4-uCvtQVfR6zRa9MHCVx-22" value="Yes" style="text;strokeColor=none;align=center;fillColor=none;html=1;verticalAlign=middle;whiteSpace=wrap;rounded=0;" vertex="1" parent="1">
          <mxGeometry x="183.75" y="740" width="60" height="30" as="geometry" />
        </mxCell>
        <mxCell id="4-uCvtQVfR6zRa9MHCVx-24" value="&lt;font style=&quot;font-size: 24px;&quot;&gt;End&lt;/font&gt;" style="ellipse;whiteSpace=wrap;html=1;" vertex="1" parent="1">
          <mxGeometry x="305" y="860" width="120" height="80" as="geometry" />
        </mxCell>
        <mxCell id="4-uCvtQVfR6zRa9MHCVx-26" style="edgeStyle=orthogonalEdgeStyle;rounded=0;orthogonalLoop=1;jettySize=auto;html=1;exitX=0.5;exitY=1;exitDx=0;exitDy=0;entryX=1;entryY=0.5;entryDx=0;entryDy=0;" edge="1" parent="1" source="4-uCvtQVfR6zRa9MHCVx-25" target="4-uCvtQVfR6zRa9MHCVx-24">
          <mxGeometry relative="1" as="geometry" />
        </mxCell>
        <mxCell id="4-uCvtQVfR6zRa9MHCVx-25" value="Print Error&amp;nbsp;&lt;br&gt;Message&lt;br&gt;" style="shape=parallelogram;perimeter=parallelogramPerimeter;whiteSpace=wrap;html=1;fixedSize=1;" vertex="1" parent="1">
          <mxGeometry x="440" y="370" width="120" height="60" as="geometry" />
        </mxCell>
        <mxCell id="4-uCvtQVfR6zRa9MHCVx-27" value="" style="endArrow=classic;html=1;rounded=0;entryX=0;entryY=0.5;entryDx=0;entryDy=0;" edge="1" parent="1" target="4-uCvtQVfR6zRa9MHCVx-3">
          <mxGeometry width="50" height="50" relative="1" as="geometry">
            <mxPoint x="150" y="140" as="sourcePoint" />
            <mxPoint x="200" y="90" as="targetPoint" />
            <Array as="points" />
          </mxGeometry>
        </mxCell>
      </root>
    </mxGraphModel>
  </diagram>
</mxfile>
